<svg width="580" height="242" viewBox="0 0 580 242" fill="none" xmlns="http://www.w3.org/2000/svg">
<path d="M93.356 143.2L96.6167 139.512L93.3561 143.2C93.8903 143.672 94.2879 144.026 94.5975 144.319C94.5779 145.017 94.5109 145.937 94.401 147.026C94.1651 149.365 93.7708 152.11 93.4272 154.311C92.7414 158.703 94.5978 163.131 98.2644 165.702C100.199 167.057 102.647 168.805 104.665 170.345C105.682 171.121 106.524 171.794 107.117 172.311C107.314 172.482 107.455 172.612 107.552 172.704C108.255 173.789 109.165 174.543 109.588 174.889C110.297 175.468 111.121 176.038 111.932 176.562C113.568 177.619 115.554 178.745 117.406 179.748C119.277 180.761 121.102 181.695 122.452 182.374C123.13 182.714 123.692 182.992 124.087 183.186C124.091 183.188 124.094 183.19 124.098 183.192C124.176 183.258 124.263 183.331 124.358 183.413C124.845 183.829 125.548 184.44 126.392 185.204C128.087 186.738 130.31 188.851 132.474 191.204C133.959 192.818 135.984 193.749 137.527 194.327C139.229 194.964 141.183 195.469 143.175 195.88C146.621 196.591 150.608 197.107 154.463 197.486C138.984 208.82 119.942 215.5 99.3392 215.5C47.5476 215.5 5.5 173.225 5.5 121C5.5 68.7747 47.5476 26.5 99.3392 26.5C119.61 26.5 138.368 32.9665 153.709 43.9685C150.032 46.13 145.956 48.2366 142.663 49.2735C140.296 50.0186 138.319 50.1416 135.748 50.2784L135.599 50.2862C132.799 50.4348 129.317 50.6194 125.188 52.1598C120.345 53.9668 115.18 57.0527 111.257 59.9234C109.283 61.3675 107.475 62.8651 106.099 64.2499C105.422 64.932 104.731 65.704 104.17 66.522C103.775 67.0979 102.742 68.661 102.742 70.7207V79.3651C102.579 79.6417 102.336 80.0208 101.991 80.5131C101.057 81.8477 99.7668 83.4741 98.3063 85.3113L98.254 85.3772C96.9382 87.0324 95.4959 88.8467 94.3146 90.497C93.2691 91.9578 91.8643 94.0341 91.2965 96.0346C90.8758 97.5166 90.7349 99.4768 90.6657 101.132C90.589 102.965 90.5832 105.095 90.6164 107.244C90.6829 111.55 90.9097 116.167 91.0987 119.117C91.1192 119.436 91.0649 119.804 90.7958 120.385C90.4821 121.063 90.0151 121.758 89.2426 122.867C89.2096 122.915 89.1755 122.964 89.1404 123.014C88.4992 123.933 87.5348 125.315 86.8733 126.836C86.1035 128.605 85.5749 130.908 86.2383 133.525C86.8853 136.077 88.3299 138.099 89.5963 139.551C90.8375 140.974 92.2494 142.222 93.2673 143.122L93.356 143.2ZM94.5909 143.5C94.5909 143.501 94.591 143.502 94.5911 143.502C94.5862 143.469 94.5848 143.451 94.5854 143.452C94.586 143.453 94.5881 143.468 94.5909 143.5Z" fill="#F4991A" stroke="#654009" stroke-width="11"/>
<path d="M144.188 161.846C143.161 162.154 141.519 162.462 139.26 162.77C137.104 163.078 134.845 163.232 132.484 163.232C130.225 163.232 128.172 163.078 126.324 162.77C124.579 162.462 123.09 161.846 121.858 160.922C120.626 159.998 119.651 158.766 118.932 157.226C118.316 155.583 118.008 153.479 118.008 150.912V104.712C118.008 102.351 118.419 100.349 119.24 98.706C120.164 96.9607 121.447 95.4207 123.09 94.086C124.733 92.7513 126.735 91.5707 129.096 90.544C131.56 89.4147 134.178 88.4393 136.95 87.618C139.722 86.7967 142.597 86.1807 145.574 85.77C148.551 85.2567 151.529 85 154.506 85C159.434 85 163.335 85.9753 166.21 87.926C169.085 89.774 170.522 92.854 170.522 97.166C170.522 98.6033 170.317 100.041 169.906 101.478C169.495 102.813 168.982 104.045 168.366 105.174C166.21 105.174 164.003 105.277 161.744 105.482C159.485 105.687 157.278 105.995 155.122 106.406C152.966 106.817 150.913 107.279 148.962 107.792C147.114 108.203 145.523 108.716 144.188 109.332V161.846ZM180.706 66.366C180.706 62.4647 181.99 59.1793 184.556 56.51C187.226 53.8407 190.716 52.506 195.028 52.506C199.34 52.506 202.78 53.8407 205.346 56.51C208.016 59.1793 209.35 62.4647 209.35 66.366C209.35 70.2673 208.016 73.5527 205.346 76.222C202.78 78.8913 199.34 80.226 195.028 80.226C190.716 80.226 187.226 78.8913 184.556 76.222C181.99 73.5527 180.706 70.2673 180.706 66.366ZM208.118 161.846C206.989 162.051 205.295 162.308 203.036 162.616C200.88 163.027 198.673 163.232 196.414 163.232C194.156 163.232 192.102 163.078 190.254 162.77C188.509 162.462 187.02 161.846 185.788 160.922C184.556 159.998 183.581 158.766 182.862 157.226C182.246 155.583 181.938 153.479 181.938 150.912V88.234C183.068 88.0287 184.71 87.772 186.866 87.464C189.125 87.0533 191.384 86.848 193.642 86.848C195.901 86.848 197.903 87.002 199.648 87.31C201.496 87.618 203.036 88.234 204.268 89.158C205.5 90.082 206.424 91.3653 207.04 93.008C207.759 94.548 208.118 96.6013 208.118 99.168V161.846ZM287.925 139.67C287.925 147.473 284.999 153.581 279.147 157.996C273.295 162.411 264.671 164.618 253.275 164.618C248.963 164.618 244.959 164.31 241.263 163.694C237.567 163.078 234.385 162.154 231.715 160.922C229.149 159.587 227.095 157.945 225.555 155.994C224.118 154.043 223.399 151.733 223.399 149.064C223.399 146.6 223.913 144.547 224.939 142.904C225.966 141.159 227.198 139.721 228.635 138.592C231.613 140.235 235.001 141.723 238.799 143.058C242.701 144.29 247.167 144.906 252.197 144.906C255.38 144.906 257.793 144.444 259.435 143.52C261.181 142.596 262.053 141.364 262.053 139.824C262.053 138.387 261.437 137.257 260.205 136.436C258.973 135.615 256.92 134.947 254.045 134.434L249.425 133.51C240.493 131.765 233.82 129.044 229.405 125.348C225.093 121.549 222.937 116.159 222.937 109.178C222.937 105.379 223.759 101.94 225.401 98.86C227.044 95.78 229.354 93.2133 232.331 91.16C235.309 89.1067 238.851 87.5153 242.957 86.386C247.167 85.2567 251.787 84.692 256.817 84.692C260.616 84.692 264.158 85 267.443 85.616C270.831 86.1293 273.757 86.9507 276.221 88.08C278.685 89.2093 280.636 90.698 282.073 92.546C283.511 94.2913 284.229 96.396 284.229 98.86C284.229 101.221 283.767 103.275 282.843 105.02C282.022 106.663 280.944 108.049 279.609 109.178C278.788 108.665 277.556 108.151 275.913 107.638C274.271 107.022 272.474 106.509 270.523 106.098C268.573 105.585 266.571 105.174 264.517 104.866C262.567 104.558 260.77 104.404 259.127 104.404C255.739 104.404 253.121 104.815 251.273 105.636C249.425 106.355 248.501 107.535 248.501 109.178C248.501 110.307 249.015 111.231 250.041 111.95C251.068 112.669 253.019 113.336 255.893 113.952L260.667 115.03C270.523 117.289 277.505 120.42 281.611 124.424C285.821 128.325 287.925 133.407 287.925 139.67ZM334.924 84.846C341.084 84.846 346.782 85.6673 352.018 87.31C357.357 88.85 361.926 91.2627 365.724 94.548C369.523 97.8333 372.5 101.991 374.656 107.022C376.812 111.95 377.89 117.853 377.89 124.732C377.89 131.303 376.966 137.052 375.118 141.98C373.27 146.908 370.652 151.066 367.264 154.454C363.876 157.739 359.77 160.203 354.944 161.846C350.222 163.489 344.934 164.31 339.082 164.31C334.668 164.31 330.561 163.643 326.762 162.308V187.872C325.736 188.18 324.093 188.488 321.834 188.796C319.576 189.207 317.266 189.412 314.904 189.412C312.646 189.412 310.592 189.258 308.744 188.95C306.999 188.642 305.51 188.026 304.278 187.102C303.046 186.178 302.122 184.895 301.506 183.252C300.89 181.712 300.582 179.659 300.582 177.092V103.172C300.582 100.4 301.147 98.1413 302.276 96.396C303.508 94.6507 305.151 93.0593 307.204 91.622C310.387 89.5687 314.34 87.926 319.062 86.694C323.785 85.462 329.072 84.846 334.924 84.846ZM335.232 143.674C345.807 143.674 351.094 137.36 351.094 124.732C351.094 118.161 349.76 113.285 347.09 110.102C344.524 106.919 340.776 105.328 335.848 105.328C333.898 105.328 332.152 105.585 330.612 106.098C329.072 106.509 327.738 107.022 326.608 107.638V141.518C327.84 142.134 329.175 142.647 330.612 143.058C332.05 143.469 333.59 143.674 335.232 143.674ZM390.05 66.366C390.05 62.4647 391.334 59.1793 393.9 56.51C396.57 53.8407 400.06 52.506 404.372 52.506C408.684 52.506 412.124 53.8407 414.69 56.51C417.36 59.1793 418.694 62.4647 418.694 66.366C418.694 70.2673 417.36 73.5527 414.69 76.222C412.124 78.8913 408.684 80.226 404.372 80.226C400.06 80.226 396.57 78.8913 393.9 76.222C391.334 73.5527 390.05 70.2673 390.05 66.366ZM417.462 161.846C416.333 162.051 414.639 162.308 412.38 162.616C410.224 163.027 408.017 163.232 405.758 163.232C403.5 163.232 401.446 163.078 399.598 162.77C397.853 162.462 396.364 161.846 395.132 160.922C393.9 159.998 392.925 158.766 392.206 157.226C391.59 155.583 391.282 153.479 391.282 150.912V88.234C392.412 88.0287 394.054 87.772 396.21 87.464C398.469 87.0533 400.728 86.848 402.986 86.848C405.245 86.848 407.247 87.002 408.992 87.31C410.84 87.618 412.38 88.234 413.612 89.158C414.844 90.082 415.768 91.3653 416.384 93.008C417.103 94.548 417.462 96.6013 417.462 99.168V161.846Z" fill="#654009"/>
<path d="M575.158 148.448C574.645 153.273 573.207 156.969 570.846 159.536C568.587 162.103 565.251 163.386 560.836 163.386C557.551 163.386 554.625 162.616 552.058 161.076C549.491 159.433 546.719 156.713 543.742 152.914L528.496 133.818V161.846C527.367 162.051 525.673 162.308 523.414 162.616C521.258 163.027 519.051 163.232 516.792 163.232C514.533 163.232 512.48 163.078 510.632 162.77C508.887 162.462 507.398 161.846 506.166 160.922C504.934 159.998 503.959 158.766 503.24 157.226C502.624 155.583 502.316 153.479 502.316 150.912V61.746C503.445 61.438 505.088 61.13 507.244 60.822C509.503 60.4113 511.761 60.206 514.02 60.206C516.279 60.206 518.281 60.36 520.026 60.668C521.874 60.976 523.414 61.592 524.646 62.516C525.878 63.44 526.802 64.7233 527.418 66.366C528.137 67.906 528.496 69.9593 528.496 72.526V113.182L554.984 86.078C560.323 86.078 564.583 87.2587 567.766 89.62C571.051 91.9813 572.694 94.9587 572.694 98.552C572.694 100.092 572.437 101.529 571.924 102.864C571.411 104.096 570.589 105.379 569.46 106.714C568.433 108.049 567.047 109.486 565.302 111.026C563.659 112.463 561.709 114.157 559.45 116.108L550.518 123.808L575.158 148.448Z" fill="#654009"/>
<path d="M431.754 93.8888C429.492 95.3054 429.65 98.5392 432.034 99.7387C432.974 100.212 433.933 100.632 434.811 100.905C436.017 101.281 437.032 101.334 438.033 101.387C439.13 101.444 440.21 101.501 441.509 101.98C444.802 103.195 448.856 106.282 448.856 107.142V110.799C448.856 111.351 449.937 112.695 451.048 114.078C452.102 115.389 453.183 116.733 453.394 117.466C453.739 118.671 453.538 123.417 453.394 125.64C453.321 126.76 453.93 127.626 454.496 128.429C455.052 129.219 455.566 129.949 455.347 130.802C455.079 131.847 454.066 132.733 453.233 133.461C452.695 133.931 452.233 134.335 452.097 134.673C451.961 135.011 452.034 136.08 452.172 137.253C452.45 139.617 451.466 141.966 449.546 143.372C448.467 144.161 447.497 144.924 447.352 145.212C446.92 146.073 441.509 148.654 441.509 148.654C441.509 148.654 439.646 150.159 437.845 152.095C437.161 152.83 434.94 153.317 432.448 153.638C429.828 153.976 428.719 157.116 430.921 158.574C437.05 162.634 444.408 165 452.322 165C473.683 165 491 147.763 491 126.5C491 105.237 473.683 88 452.322 88C444.764 88 437.712 90.158 431.754 93.8888Z" fill="#654009"/>
</svg>
